<svg xmlns="http://www.w3.org/2000/svg" width="75.847" height="90.018" viewBox="0 0 75.847 90.018">
  <g id="creative" transform="translate(0 0)">
    <path id="Path_9" data-name="Path 9" d="M115.511,81.618a25.6,25.6,0,1,0-29.935,41.529,4.437,4.437,0,0,1,1.867,3.611v2.129a3.948,3.948,0,0,0,3.948,3.947l19.762.012a1.478,1.478,0,0,1,0,2.939l-17.322.014h-.1a5.721,5.721,0,0,0,0,11.431h.075l14.2.137a1.477,1.477,0,0,1,0,2.937l-12.551.014a2.117,2.117,0,1,0,0,4.233l12.664-.012a.725.725,0,0,0,.162-.012h.061a5.707,5.707,0,0,0,.051-11.369h-.224l-14.246-.137a1.484,1.484,0,0,1-.012-2.964l17.358-.012a.736.736,0,0,0,.163-.012h.061a5.715,5.715,0,0,0,0-11.382h-.237l-19.587-.012V126.8A8.685,8.685,0,0,0,88,119.722a21.339,21.339,0,1,1,24.743.113A2.121,2.121,0,0,0,115.2,123.3a25.7,25.7,0,0,0,.312-41.678Zm0,0" transform="translate(-62.44 -64.533)" fill="#e8001a"/>
    <path id="Path_10" data-name="Path 10" d="M4.436,230.6H-2.288a1.748,1.748,0,0,0-1.743,1.743,1.748,1.748,0,0,0,1.743,1.743H4.436a1.743,1.743,0,0,0,0-3.486Zm0,0" transform="translate(4.031 -194.473)" fill="#575757"/>
    <path id="Path_11" data-name="Path 11" d="M229.556,8.961A1.749,1.749,0,0,0,231.3,7.218V.494a1.743,1.743,0,1,0-3.487,0V7.218A1.732,1.732,0,0,0,229.556,8.961Zm0,0" transform="translate(-191.689 1.25)" fill="#575757"/>
    <path id="Path_12" data-name="Path 12" d="M70.608,74.461a1.724,1.724,0,0,0,1.22-.5,1.747,1.747,0,0,0,.025-2.465l-4.72-4.844a1.743,1.743,0,0,0-2.49,2.441l4.719,4.844a1.756,1.756,0,0,0,1.245.522Zm0,0" transform="translate(-53.524 -55.633)" fill="#575757"/>
    <path id="Path_13" data-name="Path 13" d="M367.138,66.707l-4.719,4.844a1.746,1.746,0,0,0,.024,2.466,1.747,1.747,0,0,0,2.466-.025l4.719-4.844a1.744,1.744,0,0,0-2.491-2.441Zm0,0" transform="translate(-304.901 -55.674)" fill="#575757"/>
    <path id="Path_14" data-name="Path 14" d="M425.014,230.6h-6.849a1.743,1.743,0,1,0,0,3.486h6.849a1.743,1.743,0,1,0,0-3.486Zm0,0" transform="translate(-350.91 -194.473)" fill="#575757"/>
  </g>
</svg>
