<svg xmlns="http://www.w3.org/2000/svg" width="93.421" height="85.603" viewBox="0 0 93.421 85.603">
  <g id="experience" transform="translate(0)">
    <path id="Path_28" data-name="Path 28" d="M209.489,65.6a10.568,10.568,0,0,0,8.155-4.287,14.2,14.2,0,0,0,3.214-8.739c0-6.1-4.887-10.707-11.369-10.707s-11.369,4.6-11.369,10.707a14.2,14.2,0,0,0,3.214,8.739A10.561,10.561,0,0,0,209.489,65.6Zm0-20.435c4.677,0,8.071,3.116,8.071,7.409,0,5.4-4.415,9.728-8.071,9.728-4.471,0-8.071-5.323-8.071-9.728C201.418,48.292,204.812,45.168,209.489,45.168Z" transform="translate(-162.979 -41.87)" fill="#e8001a"/>
    <path id="Path_29" data-name="Path 29" d="M183.041,233.692,181.883,250.2a1.649,1.649,0,0,0,1.529,1.761h.116a1.651,1.651,0,0,0,1.645-1.533l1.157-16.494a1.649,1.649,0,0,0-3.29-.232Z" transform="translate(-149.985 -194.133)" fill="#e8001a"/>
    <path id="Path_30" data-name="Path 30" d="M182.174,195.567a1.7,1.7,0,0,0,1.541-1.835s-1.743-12.5-2-16.692c-.474-7.529-5.073-13.57-12.258-14.669a80.781,80.781,0,0,0-9.514-.682,94.884,94.884,0,0,0-9.794.678,13.991,13.991,0,0,0-8.683,4.707,16.189,16.189,0,0,0-3.6,9.974c-.24,4.2-1.829,16.7-1.829,16.7a1.649,1.649,0,1,0,3.278.36s1.613-12.64,1.843-16.88c.328-6.008,3.884-10.837,9.438-11.593a90.7,90.7,0,0,1,9.34-.648,77.671,77.671,0,0,1,9.016.644,11.063,11.063,0,0,1,6.66,3.642,13.022,13.022,0,0,1,2.8,7.965c.254,4.245,2.025,16.888,2.025,16.888A1.7,1.7,0,0,0,182.174,195.567Z" transform="translate(-113.3 -137.741)" fill="#e8001a"/>
    <path id="Path_31" data-name="Path 31" d="M307.112,232.125a1.649,1.649,0,0,0-1.531,1.771L306.74,250.4a1.649,1.649,0,0,0,1.643,1.535h.118a1.651,1.651,0,0,0,1.529-1.761l-1.159-16.508a1.653,1.653,0,0,0-1.759-1.543Z" transform="translate(-248.957 -194.095)" fill="#e8001a"/>
    <path id="Path_32" data-name="Path 32" d="M191.262,313.864l7.931-7.731a1.649,1.649,0,0,0-.913-2.812l-10.959-1.6-4.9-9.924a1.649,1.649,0,0,0-2.958,0l-4.9,9.93-10.959,1.6a1.649,1.649,0,0,0-.913,2.812l7.931,7.731-1.871,10.907a1.649,1.649,0,0,0,2.4,1.739l9.794-5.153,9.794,5.153a1.646,1.646,0,0,0,2.028-.4,1.65,1.65,0,0,0,.365-1.341Zm-11.089,4.177c-1.915.975-7.611,4-7.611,4l1.453-8.477a1.649,1.649,0,0,0-.474-1.459l-6.158-6,8.511-1.237a1.651,1.651,0,0,0,1.241-.9l3.8-7.713,3.8,7.713a1.651,1.651,0,0,0,1.241.9l8.511,1.237-6.158,6a1.649,1.649,0,0,0-.474,1.459l1.453,8.477s-5.7-3.026-7.611-4A1.6,1.6,0,0,0,180.173,318.041Z" transform="translate(-134.231 -241.106)" fill="#575757"/>
    <path id="Path_33" data-name="Path 33" d="M372.3,340.8l-8.013-1.165-3.584-7.26a1.647,1.647,0,0,0-2.956,0l-3.584,7.26-8.013,1.165a1.649,1.649,0,0,0-.913,2.812l5.8,5.652-1.369,7.979a1.649,1.649,0,0,0,2.4,1.739l7.166-3.768,7.168,3.768a1.668,1.668,0,0,0,.768.19,1.651,1.651,0,0,0,1.625-1.929l-1.369-7.979,5.8-5.652a1.649,1.649,0,0,0-.913-2.812Zm-13.841,11.093c-1.257.632-4.979,2.616-4.979,2.616l.951-5.543a1.649,1.649,0,0,0-.474-1.459l-4.027-3.926,5.565-.8a1.645,1.645,0,0,0,1.241-.9l2.488-5.041,2.489,5.041a1.653,1.653,0,0,0,1.243.9l5.563.8-4.025,3.926a1.645,1.645,0,0,0-.474,1.459l.959,5.543s-3.72-1.985-4.977-2.616A1.628,1.628,0,0,0,358.459,351.893Z" transform="translate(-280.293 -273.573)" fill="#575757"/>
    <path id="Path_34" data-name="Path 34" d="M49.871,340.8l-8.013-1.165-3.584-7.26a1.647,1.647,0,0,0-2.956,0l-3.584,7.26L23.721,340.8a1.649,1.649,0,0,0-.913,2.812l5.8,5.653-1.359,7.979a1.649,1.649,0,0,0,2.4,1.739l7.168-3.768,7.166,3.768a1.65,1.65,0,0,0,2.393-1.739L45,349.265l5.8-5.653a1.649,1.649,0,0,0-.913-2.812ZM36.039,351.893l-4.987,2.616L32,348.967a1.645,1.645,0,0,0-.474-1.459L27.5,343.582l5.563-.8a1.653,1.653,0,0,0,1.243-.9l2.488-5.041,2.488,5.041a1.645,1.645,0,0,0,1.241.9l5.565.8-4.028,3.926a1.649,1.649,0,0,0-.474,1.459l.951,5.543-4.979-2.616A1.459,1.459,0,0,0,36.039,351.893Z" transform="translate(-22.31 -273.573)" fill="#575757"/>
  </g>
</svg>
