<svg xmlns="http://www.w3.org/2000/svg" xmlns:xlink="http://www.w3.org/1999/xlink" width="69.463" height="69.463" viewBox="0 0 69.463 69.463">
  <defs>
    <clipPath id="clip-path">
      <path id="path4335" d="M0-682.665H69.463V-613.2H0Z" transform="translate(0 682.665)"/>
    </clipPath>
  </defs>
  <g id="g4305" transform="translate(0 682.665)">
    <g id="g4307" transform="translate(44.553 -628.354)">
      <path id="path4309" d="M-60.374-35.768l-6.839-4.052" transform="translate(67.213 39.82)" fill="none" stroke="#e8001a" stroke-linecap="round" stroke-linejoin="round" stroke-width="2.2"/>
    </g>
    <g id="g4311" transform="translate(42.097 -624.217)">
      <path id="path4313" d="M-44.485-26.355l-5.039-2.985" transform="translate(49.524 29.34)" fill="none" stroke="#e8001a" stroke-linecap="round" stroke-linejoin="round" stroke-width="2.2"/>
    </g>
    <g id="g4315" transform="translate(40.004 -619.865)">
      <path id="path4317" d="M-17.432-10.326l-1.975-1.17" transform="translate(19.407 11.496)" fill="none" stroke="#e8001a" stroke-linecap="round" stroke-linejoin="round" stroke-width="2.2"/>
    </g>
    <g id="g4319" transform="translate(12.175 -662.949)">
      <path id="path4321" d="M0,0H33.269" fill="none" stroke="#575757" stroke-linecap="round" stroke-linejoin="round" stroke-width="2.2"/>
    </g>
    <g id="g4323" transform="translate(12.175 -670.038)">
      <path id="path4325" d="M0,0H16.635" fill="none" stroke="#575757" stroke-linecap="round" stroke-linejoin="round" stroke-width="2.2"/>
    </g>
    <g id="g4327" transform="translate(12.175 -656.668)">
      <path id="path4329" d="M0,0H33.269" fill="none" stroke="#575757" stroke-linecap="round" stroke-linejoin="round" stroke-width="2.2"/>
    </g>
    <g id="g4331" transform="translate(0 -682.665)">
      <g id="g4333" clip-path="url(#clip-path)">
        <g id="g4339" transform="translate(41.095 1.304)">
          <path id="path4341" d="M0,0V7.132a4.191,4.191,0,0,0,4.191,4.191h7.132" fill="none" stroke="#e8001a" stroke-linecap="round" stroke-linejoin="round" stroke-width="2.2"/>
        </g>
        <g id="g4343" transform="translate(4.916 1.018)">
          <path id="path4345" d="M-421.867-267.729v-17.4a3.176,3.176,0,0,0-.93-2.245l-9.749-9.749a3.176,3.176,0,0,0-2.245-.93h-30.673a4.191,4.191,0,0,0-4.191,4.191v53.989a4.191,4.191,0,0,0,4.191,4.191h10.647" transform="translate(469.656 298.057)" fill="none" stroke="#e8001a" stroke-linecap="round" stroke-linejoin="round" stroke-width="2.2"/>
        </g>
        <g id="g4347" transform="translate(12.863 35.334)">
          <path id="path4349" d="M-111.29-12.52l-2.106-1.248a1.219,1.219,0,0,0-1.671.427l-8.659,14.617a1.22,1.22,0,0,0,.428,1.671l2.106,1.248a2.973,2.973,0,0,0,4.073-1.042l6.872-11.6A2.973,2.973,0,0,0-111.29-12.52Z" transform="translate(123.896 13.939)" fill="none" stroke="#e8001a" stroke-linecap="round" stroke-linejoin="round" stroke-width="2.2"/>
        </g>
        <g id="g4351" transform="translate(50.482 35.334)">
          <path id="path4353" d="M-35.9-102.882l3.221,5.436A2.973,2.973,0,0,0-28.6-96.4l2.106-1.248a1.219,1.219,0,0,0,.427-1.671l-8.659-14.617a1.219,1.219,0,0,0-1.671-.428l-2.106,1.248a2.973,2.973,0,0,0-1.042,4.073l1.215,2.051" transform="translate(39.966 114.536)" fill="none" stroke="#e8001a" stroke-linecap="round" stroke-linejoin="round" stroke-width="2.2"/>
        </g>
        <g id="g4355" transform="translate(26.698 40.307)">
          <path id="path4357" d="M-105.061-11.182l-.347-.206c-2-1.147-2.932-1.358-4.735-.662l-1.965.76a4.183,4.183,0,0,1-3.64-.3l-1.215-.716" transform="translate(116.962 12.448)" fill="none" stroke="#e8001a" stroke-linecap="round" stroke-linejoin="round" stroke-width="2.2"/>
        </g>
        <g id="g4359" transform="translate(19.172 53.02)">
          <path id="path4361" d="M0,0,2.036,1.2" fill="none" stroke="#e8001a" stroke-linecap="round" stroke-linejoin="round" stroke-width="2.2"/>
        </g>
        <g id="g4363" transform="translate(36.268 55.532)">
          <path id="path4365" d="M0-93.986l3.259,1.931a2.406,2.406,0,0,0,3.3-.843,2.406,2.406,0,0,0-.843-3.3l2.705,1.6a2.406,2.406,0,0,0,3.3-.843,2.406,2.406,0,0,0-.844-3.3l1.8,1.069a2.406,2.406,0,0,0,3.3-.843,2.406,2.406,0,0,0-.844-3.3l2.207,1.308a2.4,2.4,0,0,0,3.3-.843,2.4,2.4,0,0,0-.843-3.3" transform="translate(0 104.633)" fill="none" stroke="#e8001a" stroke-linecap="round" stroke-linejoin="round" stroke-width="2.2"/>
        </g>
        <g id="g4367" transform="translate(36.604 40.349)">
          <path id="path4369" d="M-127.081-5.734l-.283.165a4.182,4.182,0,0,1-3.64.3l-2.215-.87a3.56,3.56,0,0,0-2.175-.138l-3.395.859a3.561,3.561,0,0,0-2.687,3.452V2.567a1.162,1.162,0,0,0,1.16,1.162,3.5,3.5,0,0,0,3.5-3.5V.042l14.53,8.6a4.186,4.186,0,0,1,.917-.736l2.059-1.2" transform="translate(141.477 6.384)" fill="none" stroke="#e8001a" stroke-linecap="round" stroke-linejoin="round" stroke-width="2.2"/>
        </g>
        <g id="g4371" transform="translate(19.15 53.505)">
          <path id="path4373" d="M-38.475-50.362a2.4,2.4,0,0,1-3.356.551,2.4,2.4,0,0,1-.551-3.356l1.362-1.9a2.4,2.4,0,0,1,3.356-.551,2.4,2.4,0,0,1,.551,3.356" transform="translate(42.834 56.066)" fill="none" stroke="#e8001a" stroke-linecap="round" stroke-linejoin="round" stroke-width="2.2"/>
        </g>
        <g id="g4375" transform="translate(23.057 54.215)">
          <path id="path4377" d="M-63.773-33.611l-2.866,3.991a2.4,2.4,0,0,1-3.356.551,2.4,2.4,0,0,1-.551-3.356l2.865-3.992a2.4,2.4,0,0,1,3.356-.551A2.4,2.4,0,0,1-63.773-33.611Z" transform="translate(70.997 37.418)" fill="none" stroke="#e8001a" stroke-linecap="round" stroke-linejoin="round" stroke-width="2.2"/>
        </g>
        <g id="g4379" transform="translate(26.964 57.02)">
          <path id="path4381" d="M-29.283-8.85A2.4,2.4,0,0,1-25.927-9.4a2.4,2.4,0,0,1,.551,3.356l-2.866,3.992A2.4,2.4,0,0,1-31.6-1.5a2.4,2.4,0,0,1-.551-3.356" transform="translate(32.6 9.853)" fill="none" stroke="#e8001a" stroke-linecap="round" stroke-linejoin="round" stroke-width="2.2"/>
        </g>
        <g id="g4383" transform="translate(31.51 61.599)">
          <path id="path4385" d="M-12.4-8.85A2.4,2.4,0,0,1-9.041-9.4h0A2.4,2.4,0,0,1-8.49-6.045l-.953,1.327a2.4,2.4,0,0,1-3.356.551,2.4,2.4,0,0,1-.551-3.356" transform="translate(13.801 9.853)" fill="none" stroke="#e8001a" stroke-linecap="round" stroke-linejoin="round" stroke-width="2.2"/>
        </g>
      </g>
    </g>
  </g>
</svg>
