<svg xmlns="http://www.w3.org/2000/svg" width="86.669" height="54.167" viewBox="0 0 86.669 54.167">
  <g id="hand-shake" transform="translate(0 0)">
    <g id="Group_9" data-name="Group 9" transform="translate(12.635 3.835)">
      <g id="Group_8" data-name="Group 8" transform="translate(0 0)">
        <path id="Path_20" data-name="Path 20" d="M130.44,151.964c-1.7-3.546-7.786-8.468-13.665-13.224-3.279-2.651-6.377-5.157-8.353-7.132a1.805,1.805,0,0,0-1.889-.423c-1.217.441-1.968.78-2.56,1.044a5.97,5.97,0,0,1-2.423.664,1.805,1.805,0,0,0-1.322.791c-2.553,3.817-5.2,3.492-6.962,2.9-.563-.188-.664-.43-.719-.661-.379-1.585,1.524-5.276,3.99-7.742,5.868-5.872,8.894-7.342,15.286-4.485,7.251,3.243,14.517,5.782,14.589,5.807a1.807,1.807,0,0,0,1.188-3.413c-.072-.025-7.194-2.513-14.3-5.695-8.28-3.7-12.823-1.264-19.313,5.229-2.47,2.47-5.825,7.468-4.958,11.133a4.466,4.466,0,0,0,3.1,3.254c4.092,1.351,7.825.058,10.606-3.633a9.115,9.115,0,0,0,2.712-.859c.339-.152.737-.329,1.264-.542,2.066,1.939,4.853,4.2,7.789,6.569,5.308,4.294,11.328,9.162,12.683,11.978a2.116,2.116,0,0,1-.538,2.712,1.99,1.99,0,0,1-2.224.437,1.805,1.805,0,0,0-2.82,1.679,2.181,2.181,0,0,1-1.383,2.033,2.771,2.771,0,0,1-2.813.065,1.805,1.805,0,0,0-3.03,1.152,3.431,3.431,0,0,1-2.131,2.766,1.9,1.9,0,0,1-2.073-.321,1.827,1.827,0,0,0-1.65-.419,1.8,1.8,0,0,0-1.268,1.138c-.069.181-.224.614-1.914.614a10.4,10.4,0,0,1-4.424-1.513c-1.268-.834-9.216-6.764-16.081-12.513-.964-.812-2.633-2.553-4.106-4.092-1.307-1.365-2.5-2.6-3.117-3.124a1.807,1.807,0,1,0-2.333,2.759c.56.473,1.643,1.618,2.838,2.864,1.611,1.683,3.275,3.423,4.395,4.362,6.724,5.63,14.806,11.708,16.416,12.766a13.853,13.853,0,0,0,6.41,2.1,6.214,6.214,0,0,0,4.1-1.206,5.62,5.62,0,0,0,4.106-.043,7.113,7.113,0,0,0,3.759-3.47,6.983,6.983,0,0,0,4.532-.654,6.127,6.127,0,0,0,3.015-3.149,5.905,5.905,0,0,0,4.142-1.484A5.741,5.741,0,0,0,130.44,151.964Z" transform="translate(-74.642 -118.658)" fill="#e8001a"/>
      </g>
    </g>
    <g id="Group_11" data-name="Group 11" transform="translate(18.056 7.221)">
      <g id="Group_10" data-name="Group 10" transform="translate(0 0)">
        <path id="Path_21" data-name="Path 21" d="M124.722,138.663h-16.25a1.806,1.806,0,0,0,0,3.611h16.25a1.806,1.806,0,1,0,0-3.611Z" transform="translate(-106.666 -138.663)" fill="#e8001a"/>
      </g>
    </g>
    <g id="Group_13" data-name="Group 13" transform="translate(65.139 32.496)">
      <g id="Group_12" data-name="Group 12" transform="translate(0 0)">
        <path id="Path_22" data-name="Path 22" d="M393.395,288.779a1.8,1.8,0,0,0-2.506-.491l-5.28,3.546a1.806,1.806,0,0,0,2.015,3l5.28-3.546A1.807,1.807,0,0,0,393.395,288.779Z" transform="translate(-384.811 -287.977)" fill="#e8001a"/>
      </g>
    </g>
    <g id="Group_15" data-name="Group 15" transform="translate(48.754 30.692)">
      <g id="Group_14" data-name="Group 14" transform="translate(0 0)">
        <path id="Path_23" data-name="Path 23" d="M301.775,288.54c-1.293-1.018-7.074-6.937-10.65-10.664a1.806,1.806,0,1,0-2.607,2.5c.928.968,9.115,9.5,11.018,11a1.8,1.8,0,0,0,1.116.387,1.825,1.825,0,0,0,1.423-.69A1.8,1.8,0,0,0,301.775,288.54Z" transform="translate(-288.016 -277.317)" fill="#e8001a"/>
      </g>
    </g>
    <g id="Group_17" data-name="Group 17" transform="translate(43.335 36.112)">
      <g id="Group_16" data-name="Group 16">
        <path id="Path_24" data-name="Path 24" d="M267.968,318.761c-2.163-1.73-7.6-7.5-8.826-8.84a1.807,1.807,0,0,0-2.662,2.445c.065.068,6.551,7.071,9.23,9.216a1.806,1.806,0,0,0,2.257-2.82Z" transform="translate(-256.005 -309.337)" fill="#e8001a"/>
      </g>
    </g>
    <g id="Group_19" data-name="Group 19" transform="translate(36.114 39.719)">
      <g id="Group_18" data-name="Group 18" transform="translate(0 0)">
        <path id="Path_25" data-name="Path 25" d="M225.341,340.1c-2.575-2.17-7.844-7.779-8.873-8.88a1.806,1.806,0,0,0-2.64,2.467c1.481,1.585,6.522,6.93,9.183,9.176a1.807,1.807,0,0,0,2.329-2.763Z" transform="translate(-213.343 -330.644)" fill="#e8001a"/>
      </g>
    </g>
    <g id="Group_21" data-name="Group 21" transform="translate(0 0)">
      <g id="Group_20" data-name="Group 20" transform="translate(0 0)">
        <path id="Path_26" data-name="Path 26" d="M21.1,100.108c-3.095-2.932-15.47-3.882-19.19-4.1A1.8,1.8,0,0,0,0,97.808v32.5a1.806,1.806,0,0,0,1.806,1.806H12.639a1.8,1.8,0,0,0,1.715-1.246c.264-.809,6.486-19.9,7.305-29.294A1.8,1.8,0,0,0,21.1,100.108ZM11.321,128.5H3.611V99.744c5.8.459,12.065,1.455,14.34,2.56C16.994,110.212,12.665,124.264,11.321,128.5Z" transform="translate(0 -96.003)" fill="#575757"/>
      </g>
    </g>
    <g id="Group_23" data-name="Group 23" transform="translate(61.455 3.61)">
      <g id="Group_22" data-name="Group 22" transform="translate(0 0)">
        <path id="Path_27" data-name="Path 27" d="M386.455,117.33c-14.178,0-22.043,3.629-22.371,3.781a1.8,1.8,0,0,0-.964,1.123,1.821,1.821,0,0,0,.2,1.466c2.232,3.593,9.219,23.549,10.563,28.417a1.805,1.805,0,0,0,1.741,1.325h10.834a1.806,1.806,0,0,0,1.806-1.806v-32.5A1.8,1.8,0,0,0,386.455,117.33Zm-1.806,32.5h-7.678c-1.712-5.576-6.768-20.114-9.588-26.123a58.813,58.813,0,0,1,17.265-2.744Z" transform="translate(-363.046 -117.33)" fill="#575757"/>
      </g>
    </g>
  </g>
</svg>
