<svg xmlns="http://www.w3.org/2000/svg" width="93" height="93" viewBox="0 0 93 93">
  <g id="Group_30328" data-name="Group 30328" transform="translate(-1139 -2246)">
    <g id="Ellipse_98" data-name="Ellipse 98" transform="translate(1139 2246)" fill="#fff" stroke="#e8001a" stroke-width="1">
      <circle cx="46.5" cy="46.5" r="46.5" stroke="none"/>
      <circle cx="46.5" cy="46.5" r="46" fill="none"/>
    </g>
    <g id="g4140" transform="translate(1163.843 2956.665)">
      <g id="g4142" transform="translate(0 -682.665)">
        <g id="Group_29930" data-name="Group 29930">
          <g id="g4150" transform="translate(0.885 13.747)">
            <path id="path4152" d="M0,0H40.316" fill="none" stroke="#575757" stroke-linecap="round" stroke-linejoin="round" stroke-width="1.8"/>
          </g>
          <g id="g4154" transform="translate(6.174 5.779)">
            <path id="path4156" d="M-29.57-59.107a2.107,2.107,0,0,0,2.1-2.1,2.107,2.107,0,0,0-2.1-2.1,2.106,2.106,0,0,0-2.1,2.1A2.106,2.106,0,0,0-29.57-59.107Z" transform="translate(31.672 63.309)" fill="none" stroke="#e8001a" stroke-linecap="round" stroke-linejoin="round" stroke-width="1.8"/>
          </g>
          <g id="g4158" transform="translate(24.445 5.779)">
            <path id="path4160" d="M-29.57,0h7.918a2.108,2.108,0,0,1,2.1,2.1,2.108,2.108,0,0,1-2.1,2.1H-29.57a2.108,2.108,0,0,1-2.1-2.1A2.108,2.108,0,0,1-29.57,0Z" transform="translate(31.672)" fill="none" stroke="#e8001a" stroke-linecap="round" stroke-linejoin="round" stroke-width="1.8"/>
          </g>
          <g id="g4162" transform="translate(13.936 5.779)">
            <path id="path4164" d="M-29.57-59.107a2.107,2.107,0,0,0,2.1-2.1,2.107,2.107,0,0,0-2.1-2.1,2.106,2.106,0,0,0-2.1,2.1A2.106,2.106,0,0,0-29.57-59.107Z" transform="translate(31.672 63.309)" fill="none" stroke="#e8001a" stroke-linecap="round" stroke-linejoin="round" stroke-width="1.8"/>
          </g>
          <g id="g4166" transform="translate(12.603 20.555)">
            <path id="path4168" d="M-24.913,0l-1.771,7.412" transform="translate(26.684)" fill="none" stroke="#575757" stroke-linecap="round" stroke-linejoin="round" stroke-width="1.8"/>
          </g>
          <g id="g4170" transform="translate(18.454 21.224)">
            <path id="path4172" d="M0-85.417l2.506-2.813a.342.342,0,0,0,0-.446L0-91.49" transform="translate(0 91.49)" fill="none" stroke="#575757" stroke-linecap="round" stroke-linejoin="round" stroke-width="1.8"/>
          </g>
          <g id="g4174" transform="translate(5.935 21.224)">
            <path id="path4176" d="M-36.415-85.417l-2.506-2.813a.342.342,0,0,1,0-.446l2.506-2.813" transform="translate(39.004 91.49)" fill="none" stroke="#575757" stroke-linecap="round" stroke-linejoin="round" stroke-width="1.8"/>
          </g>
          <g id="g4178" transform="translate(23.406 22.353)">
            <path id="path4180" d="M-174.348-29.73a8.563,8.563,0,0,1,2.689,1.108l.725-.722a1.109,1.109,0,0,1,1.565,0l1.141,1.141a1.108,1.108,0,0,1,0,1.565l-.723.725a8.547,8.547,0,0,1,1.1,2.663h1.016a1.112,1.112,0,0,1,1.109,1.106v1.617a1.112,1.112,0,0,1-1.109,1.106h-1.021a8.574,8.574,0,0,1-1.1,2.648l.723.722a1.108,1.108,0,0,1,0,1.565l-1.141,1.143a1.109,1.109,0,0,1-1.565,0l-.725-.722a8.558,8.558,0,0,1-2.659,1.1v1.028a1.112,1.112,0,0,1-1.106,1.108h-1.618a1.112,1.112,0,0,1-1.106-1.108v-1.03a8.576,8.576,0,0,1-2.654-1.1l-.722.722a1.109,1.109,0,0,1-1.565,0l-1.144-1.143a1.112,1.112,0,0,1,0-1.565l.725-.722a8.519,8.519,0,0,1-1.1-2.648h-1.026a1.11,1.11,0,0,1-1.106-1.106v-1.617a1.11,1.11,0,0,1,1.106-1.106h1.024a8.564,8.564,0,0,1,1.086-2.635l-.728-.73a1.107,1.107,0,0,1,0-1.565l1.141-1.141a1.109,1.109,0,0,1,1.565,0l.72.717a8.608,8.608,0,0,1,2.649-1.111v-1.02a1.11,1.11,0,0,1,1.106-1.108h1.616a1.112,1.112,0,0,1,1.109,1.108Z" transform="translate(186.744 31.844)" fill="none" stroke="#575757" stroke-linecap="round" stroke-linejoin="round" stroke-width="1.8"/>
          </g>
          <g id="g4182" transform="translate(29.355 28.3)">
            <path id="path4184" d="M-64.186,0a4.561,4.561,0,0,1,4.561,4.561A4.56,4.56,0,0,1-64.186,9.12a4.561,4.561,0,0,1-4.564-4.559A4.561,4.561,0,0,1-64.186,0Z" transform="translate(68.749)" fill="none" stroke="#575757" stroke-linecap="round" stroke-linejoin="round" stroke-width="1.8"/>
          </g>
          <g id="g4186" transform="translate(0.885 1.947)">
            <path id="path4188" d="M-120.042-461.717h-5.238c-1.811,0-3.3-1.773-3.3-3.937v-24.954c0-2.166,1.483-3.937,3.3-3.937h33.723c1.814,0,3.3,1.773,3.3,3.937v19.388m-16.688,9.5h-7.183" transform="translate(128.577 494.544)" fill="none" stroke="#575757" stroke-linecap="round" stroke-linejoin="round" stroke-width="1.8"/>
          </g>
          <g id="g4190" transform="translate(13.384 34.775)">
            <path id="path4192" d="M0,0H.018" fill="none" stroke="#000" stroke-linecap="round" stroke-linejoin="round" stroke-width="1.8"/>
          </g>
        </g>
      </g>
    </g>
  </g>
</svg>
