<svg xmlns="http://www.w3.org/2000/svg" width="93" height="93" viewBox="0 0 93 93">
  <g id="Group_30327" data-name="Group 30327" transform="translate(-713 -2455)">
    <g id="Ellipse_97" data-name="Ellipse 97" transform="translate(713 2455)" fill="#fff" stroke="#e8001a" stroke-width="1">
      <circle cx="46.5" cy="46.5" r="46.5" stroke="none"/>
      <circle cx="46.5" cy="46.5" r="46" fill="none"/>
    </g>
    <g id="_11_-_20" data-name="11 - 20" transform="translate(736 2479)">
      <g id="Research">
        <path id="Path_20889" data-name="Path 20889" d="M43.018,42.784l-3.9-3.912a9.015,9.015,0,1,0-4.243,4.242l3.911,3.9a2.994,2.994,0,0,0,4.236-4.233ZM26.05,39.95a7,7,0,1,1,9.9,0,7,7,0,0,1-9.9,0ZM41.6,45.6a1,1,0,0,1-1.406,0l-3.581-3.573a8.489,8.489,0,0,0,1.414-1.413L41.6,44.2a.991.991,0,0,1,0,1.406Z" fill="#e8001a"/>
        <path id="Path_20890" data-name="Path 20890" d="M25,44H12a3,3,0,0,1-3-3V7a3,3,0,0,1,3-3H29.38a2.973,2.973,0,0,1,.62.067V10a3,3,0,0,0,3,3h5.923a3,3,0,0,1,.077.651V27a1,1,0,0,0,2,0V13.651a4.975,4.975,0,0,0-1.456-3.527l-6.62-6.651A4.965,4.965,0,0,0,29.38,2H12A5.006,5.006,0,0,0,7,7V41a5.006,5.006,0,0,0,5,5H25a1,1,0,0,0,0-2ZM37.594,11H33a1,1,0,0,1-1-1V5.38Z" fill="#575757"/>
        <path id="Path_20891" data-name="Path 20891" d="M14,13H25a1,1,0,0,0,0-2H14a1,1,0,0,0,0,2Z" fill="#575757"/>
        <path id="Path_20892" data-name="Path 20892" d="M34,17H17a1,1,0,0,0,0,2H34a1,1,0,0,0,0-2Z" fill="#575757"/>
        <path id="Path_20893" data-name="Path 20893" d="M35,23a1,1,0,0,0-1-1H14a1,1,0,0,0,0,2H34A1,1,0,0,0,35,23Z" fill="#575757"/>
        <path id="Path_20894" data-name="Path 20894" d="M21,28a1,1,0,0,0-1-1H14a1,1,0,0,0,0,2h6A1,1,0,0,0,21,28Z" fill="#575757"/>
        <path id="Path_20895" data-name="Path 20895" d="M14,34h4a1,1,0,0,0,0-2H14a1,1,0,0,0,0,2Z" fill="#575757"/>
        <path id="Path_20896" data-name="Path 20896" d="M14,39h5a1,1,0,0,0,0-2H14a1,1,0,0,0,0,2Z" fill="#575757"/>
        <path id="Path_20897" data-name="Path 20897" d="M31,38a3,3,0,0,1-3-3,1,1,0,0,0-2,0,5.006,5.006,0,0,0,5,5,1,1,0,0,0,0-2Z" fill="#e8001a"/>
      </g>
    </g>
  </g>
</svg>
