<svg xmlns="http://www.w3.org/2000/svg" width="93" height="93" viewBox="0 0 93 93">
  <g id="Group_30330" data-name="Group 30330" transform="translate(-1133 -2659)">
    <g id="Ellipse_99" data-name="Ellipse 99" transform="translate(1133 2659)" fill="#fff" stroke="#e8001a" stroke-width="1">
      <circle cx="46.5" cy="46.5" r="46.5" stroke="none"/>
      <circle cx="46.5" cy="46.5" r="46" fill="none"/>
    </g>
    <g id="review" transform="translate(1159.247 2686.25)">
      <g id="Group_29919" data-name="Group 29919" transform="translate(11.167 17.1)">
        <g id="Group_29918" data-name="Group 29918">
          <path id="Path_20898" data-name="Path 20898" d="M135.917,206.243a.83.83,0,1,0,.243.587A.836.836,0,0,0,135.917,206.243Z" transform="translate(-134.5 -206)" fill="#575757"/>
        </g>
      </g>
      <g id="Group_29921" data-name="Group 29921" transform="translate(0.003)">
        <g id="Group_29920" data-name="Group 29920">
          <path id="Path_20899" data-name="Path 20899" d="M40.013,0H6.975a2.493,2.493,0,0,0-2.49,2.49V16.27a2.493,2.493,0,0,0,2.49,2.49H8.47a.83.83,0,0,0,0-1.66H6.975a.831.831,0,0,1-.83-.83V2.49a.831.831,0,0,1,.83-.83H40.013a.831.831,0,0,1,.83.83V16.27a.831.831,0,0,1-.83.83H34.461a.83.83,0,0,0-.587.243L31.14,20.076l-2.733-2.733a.83.83,0,0,0-.587-.243H21.346a4.874,4.874,0,0,0-.208-.463A4.723,4.723,0,0,0,18.29,14.26l-1.2-.365a.83.83,0,0,0-1.022.512l-1.886,5.212A6.281,6.281,0,0,1,11.277,23l-1.77.964a2.366,2.366,0,0,0-1.83-.865h-5.3A2.373,2.373,0,0,0,0,25.469V40.13a2.373,2.373,0,0,0,2.37,2.37h5.3a2.369,2.369,0,0,0,1.979-1.068l.847.332A10.617,10.617,0,0,0,14.4,42.5H25.6a3.045,3.045,0,0,0,2.636-4.575,3.046,3.046,0,0,0,1.7-4.469,3.047,3.047,0,0,0-.15-5.8A3.045,3.045,0,0,0,27.143,23.1H20.486l.931-2.764a4.77,4.77,0,0,0,.251-1.576h5.808l3.077,3.077a.83.83,0,0,0,1.174,0L34.8,18.76h5.208a2.493,2.493,0,0,0,2.49-2.49V2.49A2.493,2.493,0,0,0,40.013,0ZM8.387,40.13a.711.711,0,0,1-.71.71h-5.3a.711.711,0,0,1-.71-.71V25.47a.711.711,0,0,1,.71-.71H4.195V34.98a.83.83,0,0,0,1.66,0V24.76H7.677a.711.711,0,0,1,.67.478.814.814,0,0,0,.03.119.712.712,0,0,1,.01.113V40.13ZM27.143,24.759h0a1.388,1.388,0,0,1,0,2.775h-4.5a.83.83,0,1,0,0,1.66h6.283a1.388,1.388,0,0,1,0,2.775H22.639a.83.83,0,1,0,0,1.66H27.32a1.387,1.387,0,1,1,0,2.775H22.639a.83.83,0,1,0,0,1.66H25.6a1.388,1.388,0,0,1,0,2.775H14.4a8.967,8.967,0,0,1-3.287-.621L10.047,39.8V25.561l2.024-1.1a7.939,7.939,0,0,0,3.672-4.275l1.618-4.471.446.136a3.1,3.1,0,0,1,2.037,3.957l-1.3,3.859a.83.83,0,0,0,.787,1.1Z" transform="translate(-0.003)" fill="#575757"/>
        </g>
      </g>
      <g id="Group_29923" data-name="Group 29923" transform="translate(29.867 4.866)">
        <g id="Group_29922" data-name="Group 29922">
          <path id="Path_20900" data-name="Path 20900" d="M368.607,61.8a1.318,1.318,0,0,0-1.071-.9l-1.468-.213-.657-1.33a1.318,1.318,0,0,0-1.189-.739h0a1.318,1.318,0,0,0-1.189.739l-.656,1.331-1.468.214a1.326,1.326,0,0,0-.734,2.262l1.063,1.035-.25,1.462a1.324,1.324,0,0,0,1.924,1.4l1.313-.691,1.313.69a1.326,1.326,0,0,0,1.924-1.4L367.21,64.2l1.062-1.036A1.319,1.319,0,0,0,368.607,61.8Zm-2.682,1.33a1.326,1.326,0,0,0-.381,1.174l.166.968-.87-.457a1.326,1.326,0,0,0-1.234,0l-.869.457.166-.968a1.326,1.326,0,0,0-.382-1.174l-.7-.685.972-.142a1.325,1.325,0,0,0,1-.726l.435-.881.435.881a1.326,1.326,0,0,0,1,.725l.972.141Z" transform="translate(-359.773 -58.617)" fill="#e8001a"/>
        </g>
      </g>
      <g id="Group_29925" data-name="Group 29925" transform="translate(19.307 4.866)">
        <g id="Group_29924" data-name="Group 29924">
          <path id="Path_20901" data-name="Path 20901" d="M241.394,61.8a1.318,1.318,0,0,0-1.071-.9l-1.468-.213-.657-1.33a1.318,1.318,0,0,0-1.189-.739h0a1.318,1.318,0,0,0-1.189.74l-.656,1.331L233.7,60.9a1.326,1.326,0,0,0-.734,2.262l1.063,1.035-.25,1.462a1.324,1.324,0,0,0,1.924,1.4l1.313-.691,1.314.69a1.326,1.326,0,0,0,1.924-1.4L240,64.2l1.062-1.036A1.318,1.318,0,0,0,241.394,61.8Zm-2.682,1.33a1.326,1.326,0,0,0-.381,1.174l.166.968-.87-.457a1.326,1.326,0,0,0-1.234,0l-.869.457.166-.968a1.326,1.326,0,0,0-.382-1.174l-.7-.685.972-.142a1.326,1.326,0,0,0,1-.726l.434-.881.435.881a1.326,1.326,0,0,0,1,.725l.972.141Z" transform="translate(-232.56 -58.617)" fill="#e8001a"/>
        </g>
      </g>
      <g id="Group_29927" data-name="Group 29927" transform="translate(8.747 4.866)">
        <g id="Group_29926" data-name="Group 29926">
          <path id="Path_20902" data-name="Path 20902" d="M114.181,61.8a1.318,1.318,0,0,0-1.071-.9l-1.468-.213-.657-1.33a1.318,1.318,0,0,0-1.189-.739h0a1.318,1.318,0,0,0-1.189.74l-.656,1.331-1.468.214a1.326,1.326,0,0,0-.734,2.262l1.063,1.035-.25,1.462a1.324,1.324,0,0,0,1.924,1.4l1.313-.691,1.313.69a1.326,1.326,0,0,0,1.924-1.4l-.251-1.462,1.062-1.036A1.318,1.318,0,0,0,114.181,61.8Zm-2.682,1.33a1.326,1.326,0,0,0-.381,1.174l.166.968-.87-.457a1.326,1.326,0,0,0-1.234,0l-.869.457.166-.968a1.326,1.326,0,0,0-.382-1.173l-.7-.685.972-.142a1.326,1.326,0,0,0,1-.726l.434-.881.435.881a1.326,1.326,0,0,0,1,.725l.972.141Z" transform="translate(-105.347 -58.617)" fill="#e8001a"/>
        </g>
      </g>
      <g id="Group_29929" data-name="Group 29929" transform="translate(4.195 37.135)">
        <g id="Group_29928" data-name="Group 29928">
          <path id="Path_20903" data-name="Path 20903" d="M51.334,447.359a.83.83,0,0,0-.83.83v.013a.83.83,0,0,0,1.66,0v-.013A.83.83,0,0,0,51.334,447.359Z" transform="translate(-50.504 -447.359)" fill="#575757"/>
        </g>
      </g>
    </g>
  </g>
</svg>
