<svg xmlns="http://www.w3.org/2000/svg" width="93" height="93" viewBox="0 0 93 93">
  <g id="Group_30326" data-name="Group 30326" transform="translate(-291 -2664)">
    <g id="Ellipse_96" data-name="Ellipse 96" transform="translate(291 2664)" fill="#fff" stroke="#e8001a" stroke-width="1">
      <circle cx="46.5" cy="46.5" r="46.5" stroke="none"/>
      <circle cx="46.5" cy="46.5" r="46" fill="none"/>
    </g>
    <g id="consultation" transform="translate(310.064 2684.494)">
      <path id="Path_20884" data-name="Path 20884" d="M197.872,13.535l6.176-5.146h8.085V0H192V8.389h5.872Zm-4.194-6.824V1.678h16.778V6.711h-7.015L199.55,9.953V6.711Zm0,0" transform="translate(-171.867)" fill="#e8001a"/>
      <path id="Path_20885" data-name="Path 20885" d="M224,32h1.678v1.678H224Zm0,0" transform="translate(-200.512 -28.645)" fill="#e8001a"/>
      <path id="Path_20886" data-name="Path 20886" d="M256,32h6.711v1.678H256Zm0,0" transform="translate(-229.156 -28.645)" fill="#e8001a"/>
      <path id="Path_20887" data-name="Path 20887" d="M336,32h1.678v1.678H336Zm0,0" transform="translate(-300.767 -28.645)" fill="#e8001a"/>
      <path id="Path_20888" data-name="Path 20888" d="M42.7,157.75l-.678-6.791a5.876,5.876,0,0,0,4.953-5.792V134.261H43.622V133.1a3.018,3.018,0,0,0-1.634-2.689,5.013,5.013,0,0,0,1.634-3.7v-1.678a5.033,5.033,0,0,0-10.067,0v1.678a5.037,5.037,0,0,0,3.316,4.725l-4.5,4.5h-4.7a3.364,3.364,0,0,0-2.415-3.007l-3.439-.981v-1.5a5.016,5.016,0,0,0,1.678-3.741v-1.678a5.033,5.033,0,1,0-10.067,0v1.678a5.019,5.019,0,0,0,1.678,3.741v1.5l-3.439.981a3.368,3.368,0,0,0-2.433,3.227v3.135H5.872v5.033H7.55V157.75H0v1.678H52.01V157.75Zm-7.47-13.422V140.48l5.944-5.944a2.628,2.628,0,0,0,.743-1.609,1.365,1.365,0,0,1,.024.174v10.387a2.52,2.52,0,0,1-2.517,2.517H32.716v-1.678Zm-2.517,6.711H36.99l.671,6.711H32.716Zm5.96,0h1.67l.671,6.711h-1.67Zm4.945-7.55v-7.55H45.3v9.228a4.2,4.2,0,0,1-4.194,4.194H32.716v-1.678h6.711A4.2,4.2,0,0,0,43.622,143.489Zm-8.389-16.778v-1.678a3.356,3.356,0,0,1,6.711,0v1.678a3.356,3.356,0,1,1-6.711,0Zm-2.169,10.905,5.6-5.6a.941.941,0,0,1,1.33,1.33l-5.944,5.944h-8.88a.839.839,0,0,1,0-1.678ZM15.1,125.033a3.356,3.356,0,0,1,6.711,0v1.678a3.356,3.356,0,1,1-6.711,0Zm3.356,6.711a5.009,5.009,0,0,0,1.678-.294v.9a2.145,2.145,0,0,1-1.678,1.07,2.145,2.145,0,0,1-1.678-1.07v-.9A5.009,5.009,0,0,0,18.455,131.744Zm-7.55,4.415a1.685,1.685,0,0,1,1.217-1.613l3.456-.987a3.654,3.654,0,0,0,2.878,1.541,3.652,3.652,0,0,0,2.878-1.542l3.456.987a1.672,1.672,0,0,1,1.18,1.393h-.8a2.52,2.52,0,0,0-2.517,2.517,2.482,2.482,0,0,0,.154.839h-11.9ZM7.55,140.972H33.555v1.678H7.55Zm1.678,6.711h2.517v-1.678H9.227v-1.678H31.038v1.678H13.422v1.678H31.038V157.75h-2l-1.678-3.356H12.9l-1.678,3.356h-2ZM27.164,157.75H13.1l.839-1.678H26.325Zm0,0" transform="translate(0 -107.417)" fill="#575757"/>
    </g>
  </g>
</svg>
