<svg xmlns="http://www.w3.org/2000/svg" xmlns:xlink="http://www.w3.org/1999/xlink" width="93" height="93" viewBox="0 0 93 93">
  <defs>
    <clipPath id="clip-path">
      <path id="path3606" d="M0-682.665H45.544v45.544H0Z" transform="translate(0 682.665)"/>
    </clipPath>
  </defs>
  <g id="Group_30329" data-name="Group 30329" transform="translate(-1546 -2355)">
    <g id="Ellipse_100" data-name="Ellipse 100" transform="translate(1546 2355)" fill="#fff" stroke="#e8001a" stroke-width="1">
      <circle cx="46.5" cy="46.5" r="46.5" stroke="none"/>
      <circle cx="46.5" cy="46.5" r="46" fill="none"/>
    </g>
    <g id="g3600" transform="translate(1569.728 3064.665)">
      <g id="g3602" transform="translate(0 -682.665)">
        <g id="g3604" clip-path="url(#clip-path)">
          <g id="g3610" transform="translate(12.377 39.219)">
            <path id="path3612" d="M-83.817-79.147h9.525a1.347,1.347,0,0,0,1.347-1.347v-2.963a1.347,1.347,0,0,0-1.347-1.347h-14.17a1.347,1.347,0,0,0-1.347,1.347v2.963a1.347,1.347,0,0,0,1.347,1.347h1.531" transform="translate(89.809 84.805)" fill="none" stroke="#575757" stroke-linecap="round" stroke-linejoin="round" stroke-width="1.8"/>
          </g>
          <g id="g3614" transform="translate(5.763 0.667)">
            <path id="path3616" d="M-202.65-129.116h-12.838a1.648,1.648,0,0,1-1.648-1.648V-136.7a1.648,1.648,0,0,1,1.648-1.648h30.722a1.648,1.648,0,0,1,1.648,1.648v5.933a1.648,1.648,0,0,1-1.648,1.648H-195.41" transform="translate(217.137 138.346)" fill="none" stroke="#575757" stroke-linecap="round" stroke-linejoin="round" stroke-width="1.8"/>
          </g>
          <g id="g3618" transform="translate(12.852 3.298)">
            <path id="path3620" d="M0-55.513l1.49-3.912a.09.09,0,0,1,.167,0l1.477,3.913" transform="translate(0 59.482)" fill="none" stroke="#e8001a" stroke-linecap="round" stroke-linejoin="round" stroke-width="1.8"/>
          </g>
          <g id="g3622" transform="translate(13.317 6.292)">
            <path id="path3624" d="M0,0H2.211" fill="none" stroke="#e8001a" stroke-linecap="round" stroke-linejoin="round" stroke-width="1.8"/>
          </g>
          <g id="g3626" transform="translate(25.55 3.298)">
            <path id="path3628" d="M-.259-26.809l-.019-1.916" transform="translate(0.277 28.725)" fill="none" stroke="#e8001a" stroke-linecap="round" stroke-linejoin="round" stroke-width="1.8"/>
          </g>
          <g id="g3630" transform="translate(22.806 3.305)">
            <path id="path3632" d="M0-55.41v-3.961l1.573,2.278" transform="translate(0 59.371)" fill="none" stroke="#e8001a" stroke-linecap="round" stroke-linejoin="round" stroke-width="1.8"/>
          </g>
          <g id="g3634" transform="translate(9.592 3.298)">
            <path id="path3636" d="M0,0V3.965c.044.007,1.39,0,1.39,0" fill="none" stroke="#e8001a" stroke-linecap="round" stroke-linejoin="round" stroke-width="1.8"/>
          </g>
          <g id="g3638" transform="translate(33.206 3.298)">
            <path id="path3640" d="M0,0V3.968" fill="none" stroke="#e8001a" stroke-linecap="round" stroke-linejoin="round" stroke-width="1.8"/>
          </g>
          <g id="g3642" transform="translate(35.952 3.298)">
            <path id="path3644" d="M0,0V3.968" fill="none" stroke="#e8001a" stroke-linecap="round" stroke-linejoin="round" stroke-width="1.8"/>
          </g>
          <g id="g3646" transform="translate(33.206 5.214)">
            <path id="path3648" d="M0,0H2.746" fill="none" stroke="#e8001a" stroke-linecap="round" stroke-linejoin="round" stroke-width="1.8"/>
          </g>
          <g id="g3650" transform="translate(27.779 3.298)">
            <path id="path3652" d="M-43.276-4.741a1.975,1.975,0,0,0-1.109-.339A1.984,1.984,0,0,0-46.369-3.1a1.984,1.984,0,0,0,1.984,1.984A1.6,1.6,0,0,0-43.3-1.506a1.6,1.6,0,0,0,.161-.166" transform="translate(46.369 5.08)" fill="none" stroke="#e8001a" stroke-linecap="round" stroke-linejoin="round" stroke-width="1.8"/>
          </g>
          <g id="g3654" transform="translate(17.856 3.298)">
            <path id="path3656" d="M0,0V2.731A1.163,1.163,0,0,0,.623,3.759a1.336,1.336,0,0,0,.731.209,1.433,1.433,0,0,0,.656-.15,1.188,1.188,0,0,0,.748-1.091V0" fill="none" stroke="#e8001a" stroke-linecap="round" stroke-linejoin="round" stroke-width="1.8"/>
          </g>
          <g id="g3658" transform="translate(24.891 41.381)">
            <path id="path3660" d="M-18.666-9.333a.667.667,0,0,1-.667.667A.667.667,0,0,1-20-9.333.667.667,0,0,1-19.333-10a.667.667,0,0,1,.667.667" transform="translate(20 10)"/>
          </g>
          <g id="g3662" transform="translate(11.764 5.214)">
            <path id="path3664" d="M-33.088-475.713v-1.647a5.464,5.464,0,0,0-.334-1.879l-1.465-3.994a9.275,9.275,0,0,1-.567-3.191v-9.484a1.96,1.96,0,0,1,.576-1.39,1.96,1.96,0,0,1,1.39-.576,1.965,1.965,0,0,1,1.966,1.966v-.648a1.961,1.961,0,0,1,.576-1.39,1.959,1.959,0,0,1,1.39-.575,1.965,1.965,0,0,1,1.965,1.964,1.963,1.963,0,0,1,.576-1.389,1.961,1.961,0,0,1,1.389-.575,1.966,1.966,0,0,1,1.966,1.966v-11.2a1.961,1.961,0,0,1,.576-1.39,1.953,1.953,0,0,1,.394-.3,1.95,1.95,0,0,1,1-.271,1.966,1.966,0,0,1,1.965,1.966v17.6l1.473-1.473a2.805,2.805,0,0,0,.822-1.984V-496.2a1.658,1.658,0,0,1,1.6-1.671,1.632,1.632,0,0,1,1.657,1.513l.357,3.708a9.335,9.335,0,0,1-1.607,6.194l-3.467,4.9a4.546,4.546,0,0,0-.835,2.627v3.215" transform="translate(35.453 509.719)" fill="none" stroke="#575757" stroke-linecap="round" stroke-linejoin="round" stroke-width="1.8"/>
          </g>
          <g id="g3666" transform="translate(15.696 19.025)">
            <path id="path3668" d="M0,0V1.167" fill="none" stroke="#575757" stroke-linecap="round" stroke-linejoin="round" stroke-width="1.8"/>
          </g>
          <g id="g3670" transform="translate(19.627 18.376)">
            <path id="path3672" d="M0,0V1.816" transform="translate(0 0)" fill="none" stroke="#575757" stroke-linecap="round" stroke-linejoin="round" stroke-width="1.8"/>
          </g>
          <g id="g3674" transform="translate(23.559 18.378)">
            <path id="path3676" d="M0,0V1.815" transform="translate(0 0)" fill="none" stroke="#575757" stroke-linecap="round" stroke-linejoin="round" stroke-width="1.8"/>
          </g>
        </g>
      </g>
    </g>
  </g>
</svg>
