<svg xmlns="http://www.w3.org/2000/svg" width="283.434" height="75.279" viewBox="0 0 283.434 75.279">
  <g id="Group_30363" data-name="Group 30363" transform="translate(-164.566 -1830)">
    <g id="Group_29936" data-name="Group 29936" transform="translate(-4142.434 -284)">
      <path id="Path_20647" data-name="Path 20647" d="M49.383,75.135q0,5.648-5.128,5.647a10.881,10.881,0,0,1-7.03-2.766L12.908,57.675V80.494H0V44.257a5.218,5.218,0,0,1,1.469-3.808,5.582,5.582,0,0,1,4.178-1.5,10,10,0,0,1,6.511,2.484L36.475,61.824V38.948H49.383Z" transform="translate(4307 2091.775)" fill="#fff"/>
      <path id="Path_20648" data-name="Path 20648" d="M165.095,69.021,153.914,79.739H127.475V38.193H155.2L166.1,48.911H140.382v4.437h28.5l5.389,5.618-5.533,5.1H140.382v4.956Z" transform="translate(4234.258 2092.206)" fill="#fff"/>
      <path id="Path_20649" data-name="Path 20649" d="M263.6,0,229.357,34.822,251.586,57.8H235.164L221.046,42.934,189.392,75.28H173.028L210.1,37.4,189.584,16.255h16.653l12.229,12.863L246.892,0Z" transform="translate(4208.265 2114)" fill="#e8001a"/>
    </g>
    <text id="Graphics" transform="translate(322 1878)" fill="#fff" font-size="35" font-family="MBFCanno, MBF Canno"><tspan x="0" y="0">Graphics</tspan></text>
  </g>
</svg>
