<svg id="quality" xmlns="http://www.w3.org/2000/svg" width="80.049" height="80.091" viewBox="0 0 80.049 80.091">
  <path id="Path_15" data-name="Path 15" d="M190.62,193.078l-12.034,11.366-5.775-5.942a1.664,1.664,0,1,0-2.387,2.32l6.927,7.111a1.7,1.7,0,0,0,2.354.05L192.941,195.5a1.663,1.663,0,0,0,.066-2.354,1.7,1.7,0,0,0-2.387-.067Zm0,0" transform="translate(-141.658 -160.472)" fill="#575757"/>
  <path id="Path_16" data-name="Path 16" d="M115.811,90.551a24.936,24.936,0,1,0,24.936,24.936A24.96,24.96,0,0,0,115.811,90.551Zm0,46.534a21.6,21.6,0,1,1,21.6-21.6A21.623,21.623,0,0,1,115.811,137.085Zm0,0" transform="translate(-75.778 -75.437)" fill="#575757"/>
  <path id="Path_17" data-name="Path 17" d="M74.774,30.868l.551-9.9a1.665,1.665,0,0,0-.918-1.586l-8.813-4.456L61.138,6.116A1.694,1.694,0,0,0,59.552,5.2l-9.915.535L41.375.274a1.668,1.668,0,0,0-1.836,0L31.278,5.733l-9.9-.551a1.662,1.662,0,0,0-1.586.918l-4.457,8.813L6.526,19.369a1.691,1.691,0,0,0-.918,1.586l.55,9.9L.7,39.114a1.668,1.668,0,0,0,0,1.836l5.441,8.278-.551,9.9a1.664,1.664,0,0,0,.918,1.586l8.813,4.456,4.456,8.813a1.691,1.691,0,0,0,1.586.918l9.9-.551,8.262,5.458a1.625,1.625,0,0,0,1.836,0l8.262-5.458,9.9.551a1.666,1.666,0,0,0,1.586-.918l4.456-8.813,8.813-4.456a1.693,1.693,0,0,0,.918-1.586l-.551-9.9L80.2,40.966a1.668,1.668,0,0,0,0-1.836Zm-3.1,16.991a1.567,1.567,0,0,0-.267,1.018l.517,9.363-8.328,4.206a1.647,1.647,0,0,0-.734.735L58.65,71.511l-9.363-.517a1.823,1.823,0,0,0-1.018.267l-7.811,5.158L32.647,71.26a1.652,1.652,0,0,0-.918-.284h-.083l-9.364.518-4.206-8.329a1.644,1.644,0,0,0-.735-.734L9,58.241l.518-9.363a1.824,1.824,0,0,0-.267-1.018L4.088,40.048l5.157-7.811a1.562,1.562,0,0,0,.267-1.018L9,21.855l8.329-4.206a1.646,1.646,0,0,0,.734-.734l4.206-8.329,9.364.518a1.832,1.832,0,0,0,1.018-.267l7.811-5.157,7.811,5.157a1.565,1.565,0,0,0,1.018.267l9.363-.518,4.207,8.329a1.646,1.646,0,0,0,.734.734l8.328,4.206L71.4,31.219a1.828,1.828,0,0,0,.267,1.018l5.158,7.811Zm0,0" transform="translate(-0.425 0.001)" fill="#e8001a"/>
</svg>
